<?xml version="1.0" encoding="UTF-8"?>
<svg width="164px" height="30px" viewBox="0 0 164 30" version="1.1" xmlns="http://www.w3.org/2000/svg" xmlns:xlink="http://www.w3.org/1999/xlink">
    <!-- Generator: Sketch 52.4 (67378) - http://www.bohemiancoding.com/sketch -->
    <title>logo+系统名</title>
    <desc>Created with Sketch.</desc>
    <g id="Symbols" stroke="none" stroke-width="1" fill="none" fill-rule="evenodd">
        <g id="Top/01首页" transform="translate(-16.000000, -38.000000)" fill="#FFFFFF">
            <g id="logo+系统名" transform="translate(16.000000, 38.000000)">
                <g id="logo/logo2">
                    <g id="Group">
                        <path d="M60.9862958,22.3383232 C60.8821708,25.3332419 62.2251708,27.6765346 64.2864208,28.6617988 C63.9202125,28.9356809 63.5858792,29.3184045 63.4144625,29.6314126 C61.7569625,28.787002 60.8857125,27.332937 60.4182125,25.9649492 C59.9747958,27.2781606 59.1658792,28.6539736 57.6635042,29.637815 C57.4602125,29.3411687 57.0954208,28.9897459 56.6980458,28.723689 C59.7955875,26.9182012 59.6248792,23.4559045 59.6787125,22.3383232 L60.9862958,22.3383232 Z M35.3871292,25.480498 C35.8928792,26.895437 36.7960042,28.0364939 38.2275458,28.591372 C37.9470458,28.8410671 37.5666708,29.3411687 37.3867542,29.6705386 C36.0175458,29.0366972 35.1618792,27.9966565 34.5619208,26.6137297 C34.1185042,27.8173882 33.2932958,28.9043801 31.7604625,29.6705386 C31.5812542,29.3575305 31.2391292,28.9506199 30.9040875,28.7009248 C32.6083375,27.9269411 33.3251708,26.7545833 33.6354208,25.480498 L31.0599208,25.480498 L31.0599208,24.300315 L33.8231292,24.300315 C33.8755458,23.63375 33.8698792,22.9686077 33.8769625,22.3383232 L35.1207958,22.3383232 C35.1137125,22.9686077 35.1052125,23.63375 35.0450042,24.300315 L38.0327542,24.300315 L38.0327542,25.480498 L35.3871292,25.480498 Z M70.0097542,26.1997053 L68.6093792,26.1997053 C68.5470458,26.3476728 68.4925042,26.497063 68.4301708,26.6450305 L70.0097542,26.6450305 L70.0097542,26.1997053 Z M71.1700042,26.1997053 L71.1700042,26.6450305 L72.2898792,26.6450305 L72.2898792,27.6302947 L71.1700042,27.6302947 L71.1700042,28.5052947 C71.1700042,29.0210467 71.0842958,29.3184045 70.7336708,29.4898476 C70.3915458,29.662002 69.9630042,29.6854776 69.4416708,29.6783638 C69.3949208,29.3575305 69.2164208,28.8801931 69.0683792,28.5757215 C69.3559625,28.591372 69.7533375,28.591372 69.8624208,28.591372 C69.9785875,28.591372 70.0097542,28.567185 70.0097542,28.4739939 L70.0097542,27.6302947 L67.9244208,27.6302947 C67.7834625,27.8565142 67.6283375,28.0749085 67.4654208,28.2790752 L68.1893375,27.8252134 C68.4847125,28.1382215 68.8657958,28.5757215 69.0450042,28.8801931 L68.0724625,29.5140346 C67.9315042,29.224502 67.6049625,28.787002 67.3244625,28.4498069 C66.9752542,28.8574289 66.5700875,29.2088516 66.1025875,29.5062093 C65.9162958,29.2871037 65.3715875,28.826128 65.0747958,28.6148476 C65.5734625,28.3487907 65.9942125,28.0208435 66.3526292,27.6302947 L65.4565875,27.6302947 L65.4565875,26.6450305 L67.0531708,26.6450305 C67.1303792,26.5041768 67.2082958,26.355498 67.2784208,26.1997053 L65.3014625,26.1997053 L65.3014625,25.2308028 L67.6439208,25.2308028 C67.6750875,25.1290752 67.6991708,25.0273476 67.7296292,24.9177947 L66.0487542,24.9177947 L66.0487542,24.0107825 L67.9315042,24.0107825 C67.9555875,23.9090549 67.9704625,23.8151524 67.9867542,23.7141362 L65.7144208,23.7141362 L65.7144208,22.7687093 L68.1192125,22.7687093 C68.1418792,22.6036687 68.1581708,22.4322256 68.1730458,22.2600711 L69.4190042,22.3774492 L69.3722542,22.7687093 L71.9555458,22.7687093 L71.9555458,23.7141362 L69.2390875,23.7141362 L69.1852542,24.0107825 L71.6906292,24.0107825 L71.6906292,24.9177947 L68.9904625,24.9177947 C68.9670875,25.0273476 68.9359208,25.1290752 68.9125458,25.2308028 L72.4152542,25.2308028 L72.4152542,26.1997053 L71.1700042,26.1997053 Z M52.0952958,27.1607825 C51.9012125,27.5435061 51.6986292,27.9425915 51.5038375,28.3018394 C52.1186708,28.2790752 52.7646708,28.2555996 53.4028792,28.2314126 C53.2010042,28.0051931 52.9906292,27.7860874 52.7887542,27.5911687 L53.6132542,27.1607825 L52.0952958,27.1607825 Z M51.0604208,24.5969614 L53.4963792,24.5969614 C52.9906292,24.2064126 52.5472125,23.7838516 52.2504208,23.3776524 C51.9550458,23.7760264 51.5427958,24.1985874 51.0604208,24.5969614 Z M53.9008375,27.1607825 C54.5468375,27.7469614 55.2006292,28.4974695 55.5427542,29.0601728 L54.4845042,29.701128 C54.4150875,29.5609858 54.3130875,29.4044817 54.2040042,29.2401524 C52.4133375,29.3411687 50.5312958,29.4279573 49.2010458,29.4898476 L49.0522958,28.3800915 C49.4100042,28.3729776 49.8073792,28.3573272 50.2430042,28.3409654 C50.4144208,27.9738923 50.5773375,27.5520427 50.7027125,27.1607825 L49.0289208,27.1607825 L49.0289208,26.1058028 L55.5122958,26.1058028 L55.5122958,27.1607825 L53.9008375,27.1607825 Z M52.8440042,22.3383232 C53.6741708,23.4608841 54.8216708,24.2668801 56.0407125,24.6673882 C55.7616292,24.9569207 55.5122958,25.3631199 55.3090042,25.7074289 C54.8967542,25.519624 54.4689208,25.2699289 54.0566708,24.9960467 L54.0566708,25.637002 L50.4455875,25.637002 L50.4455875,25.057937 C50.0482125,25.3318191 49.6132958,25.5900508 49.1691708,25.7935061 C49.0367125,25.519624 48.7335458,25.0814126 48.4997958,24.8395427 C49.8080875,24.2860874 50.9995042,23.2133232 51.5718375,22.3383232 L52.8440042,22.3383232 Z M45.0402958,27.6765346 C45.1961292,27.692185 45.3130042,27.692185 45.4220875,27.692185 C45.5311708,27.692185 45.6402542,27.6765346 45.7174625,27.6302947 C45.8421292,27.5598679 45.8973792,27.4033638 45.8973792,27.1458435 C45.8973792,26.7545833 45.7564208,26.1911687 45.2272958,25.6291768 C45.4065042,25.1134248 45.6168792,24.3622053 45.7727125,23.7689126 L45.0402958,23.7689126 L45.0402958,27.6765346 Z M42.1460458,24.5037703 C42.2466292,24.3472663 42.3486292,24.1907622 42.4492125,24.0264329 L42.0596292,24.0264329 L42.0596292,24.5037703 L42.1460458,24.5037703 Z M41.4525875,28.4192175 L42.4414208,28.4192175 L42.4414208,28.0364939 L41.4525875,28.0364939 L41.4525875,28.4192175 Z M41.4525875,27.191372 L42.4414208,27.191372 L42.4414208,26.8477744 L41.4525875,26.8477744 L41.4525875,27.191372 Z M47.1497125,23.1741972 C46.9003792,23.9325305 46.5894208,24.8160671 46.3174208,25.4883232 C46.8855042,26.1762297 46.9782958,26.7937093 46.9782958,27.2781606 C46.9782958,27.9191159 46.8387542,28.3174898 46.5192958,28.5365955 C46.3634625,28.6539736 46.1686708,28.723689 45.9512125,28.7557012 C45.7805042,28.7791768 45.5467542,28.787002 45.3052125,28.7706402 C45.2974208,28.4818191 45.1961292,28.0279573 45.0402958,27.7234858 L45.0402958,29.6933028 L43.9275042,29.6933028 L43.9275042,23.3150508 C43.7567958,23.7297866 43.5705042,24.1281606 43.3516292,24.5037703 L43.7249208,24.5037703 L43.7249208,25.480498 L42.7056292,25.480498 C42.5809625,25.6448272 42.4492125,25.8013313 42.3096708,25.9578354 L43.5074625,25.9578354 L43.5074625,29.58375 L42.4414208,29.58375 L42.4414208,29.3184045 L41.4525875,29.3184045 L41.4525875,29.6933028 L40.4340042,29.6933028 L40.4340042,27.4965549 C40.3475875,27.5520427 40.2618792,27.5989939 40.1768792,27.6459451 C40.0600042,27.4033638 39.7412542,26.9182012 39.5464625,26.6919817 C40.2080458,26.3867988 40.7987958,25.9727744 41.3130458,25.480498 L39.7639208,25.480498 L39.7639208,24.5037703 L41.0169625,24.5037703 L41.0169625,24.0264329 L40.0911708,24.0264329 L40.0911708,23.0568191 L41.0169625,23.0568191 L41.0169625,22.3383232 L42.0596292,22.3383232 L42.0596292,23.0568191 L42.7608792,23.0568191 L42.7608792,23.4167785 C42.8692542,23.1741972 42.9705458,22.924502 43.0562542,22.6662703 L43.9275042,22.9088516 L43.9275042,22.7053963 L46.1615875,22.7053963 L46.3245042,22.6662703 L47.1497125,23.1741972 Z M94.4971917,12.2389736 L98.7790667,12.2389736 C98.7790667,12.022002 98.7358583,11.8007622 98.6494417,11.5766768 C98.563025,11.3525915 98.4334,11.1462907 98.2598583,10.957063 C98.087025,10.7692581 97.8709833,10.6141768 97.6117333,10.4903963 C97.351775,10.3673272 97.041525,10.3061484 96.6809833,10.3061484 C96.32115,10.3061484 96.0038167,10.3673272 95.7296917,10.4903963 C95.456275,10.6141768 95.2289,10.7692581 95.048275,10.957063 C94.8683583,11.1462907 94.73165,11.3525915 94.6374417,11.5766768 C94.5439417,11.8007622 94.4971917,12.022002 94.4971917,12.2389736 Z M100.227608,15.322815 L101.504733,17.2990346 C101.388567,17.3723069 101.215025,17.4911077 100.984817,17.6575711 C100.7539,17.8240346 100.454983,17.9869411 100.088067,18.1462907 C99.7197333,18.3056402 99.2841083,18.4464939 98.7790667,18.569563 C98.274025,18.6926321 97.6974417,18.7545224 97.050025,18.7545224 C96.1844417,18.7545224 95.405275,18.6200711 94.7132333,18.3525915 C94.0211917,18.0844004 93.4339833,17.7116362 92.9516083,17.2342988 C92.4678167,16.75625 92.1009,16.1800305 91.848025,15.507063 C91.5958583,14.8340955 91.4704833,14.0928354 91.4704833,13.2811484 C91.4704833,12.5719004 91.5901917,11.8875508 91.826775,11.228811 C92.0640667,10.5700711 92.4069,9.99456301 92.8538583,9.50228659 C93.301525,9.01001016 93.8490667,8.61590447 94.4971917,8.31925813 C95.146025,8.02261179 95.8819833,7.87322154 96.70365,7.87322154 C97.5253167,7.87322154 98.2449833,8.0183435 98.8654833,8.30787602 C99.485275,8.59740854 100.008025,8.99933943 100.433025,9.51295732 C100.858733,10.0272866 101.179608,10.6426321 101.39565,11.3589939 C101.6124,12.0753557 101.720067,12.8614329 101.720067,13.7158028 L101.720067,14.2365346 L94.4971917,14.2365346 C94.5120667,14.7878557 94.7529,15.26875 95.2218167,15.6813516 C95.690025,16.0939533 96.3353167,16.3002541 97.1569833,16.3002541 C97.9651917,16.3002541 98.6204,16.1800305 99.1247333,15.9417175 C99.629775,15.7026931 99.9974,15.4963923 100.227608,15.322815 Z M65.761525,15.6927337 L67.0159833,17.6027947 C66.03565,18.385315 64.9689,18.7758638 63.815025,18.7758638 C63.0939417,18.7758638 62.489025,18.6705793 61.9988583,18.4614329 C61.5086917,18.2508638 61.112025,17.9620427 60.8088583,17.592124 C60.5064,17.223628 60.2903583,16.7775915 60.1607333,16.2568598 C60.0311083,15.7354167 59.9659417,15.1563516 59.9659417,14.5189533 L59.9659417,10.6753557 L58.3608583,10.6753557 L58.3608583,8.2210874 L59.9659417,8.2210874 L59.9659417,5.49151423 L63.079775,5.49151423 L63.079775,8.2210874 L65.6963583,8.2210874 L65.6963583,10.6753557 L63.079775,10.6753557 L63.079775,14.6932419 C63.079775,15.1855183 63.1768167,15.5653963 63.3723167,15.832876 C63.5664,16.1010671 63.8731083,16.2348069 64.291025,16.2348069 C64.6083583,16.2348069 64.8824833,16.1800305 65.1126917,16.0719004 C65.3429,15.9630589 65.5589417,15.8364329 65.761525,15.6927337 Z M92.7199833,4.59375 L91.4010667,6.57068089 C91.1843167,6.41204268 90.947025,6.2882622 90.6870667,6.20147358 C90.4278167,6.11468496 90.1600667,6.07129065 89.88665,6.07129065 C89.4545667,6.07129065 89.1089,6.2085874 88.8489417,6.48389228 C88.5896917,6.75919715 88.4600667,7.14974593 88.4600667,7.65625 L88.4600667,8.2210874 L90.8606083,8.2210874 L90.8606083,10.6753557 L88.4600667,10.6753557 L88.4600667,18.4066565 L85.3674833,18.4066565 L85.3674833,10.6753557 L83.72415,10.6753557 L83.72415,8.2210874 L85.3674833,8.2210874 L85.3674833,7.70035569 C85.3674833,6.9761687 85.4864833,6.35370935 85.7244833,5.83155488 C85.9624833,5.31082317 86.2755667,4.88043699 86.66515,4.54039634 C87.0547333,4.19964431 87.4974417,3.94639228 87.9946917,3.77921748 C88.49265,3.61346545 89.000525,3.53023374 89.5197333,3.53023374 C90.067275,3.53023374 90.6226083,3.60919715 91.1843167,3.76854675 C91.7474417,3.92860772 92.2588583,4.20320122 92.7199833,4.59375 Z M79.0335667,18.4066565 L79.0335667,8.2210874 L80.5904833,8.2210874 L82.1481083,8.2210874 L82.1481083,18.4066565 L79.0335667,18.4066565 Z M68.1811917,18.4066565 L68.1811917,3.92078252 L71.4466083,3.92078252 L71.4466083,15.7247459 L77.6693167,15.7247459 L77.6693167,18.4066565 L68.1811917,18.4066565 Z M50.3928167,12.2389736 L54.6746917,12.2389736 C54.6746917,12.022002 54.6314833,11.8007622 54.5443583,11.5766768 C54.45865,11.3525915 54.3283167,11.1462907 54.1561917,10.957063 C53.98265,10.7692581 53.7666083,10.6141768 53.50665,10.4903963 C53.2474,10.3673272 52.93715,10.3061484 52.5766083,10.3061484 C52.2160667,10.3061484 51.8994417,10.3673272 51.6267333,10.4903963 C51.3519,10.6141768 51.124525,10.7692581 50.9446083,10.957063 C50.7639833,11.1462907 50.627275,11.3525915 50.533775,11.5766768 C50.4395667,11.8007622 50.3928167,12.022002 50.3928167,12.2389736 Z M56.1239417,15.322815 L57.3989417,17.2990346 C57.2841917,17.3723069 57.1113583,17.4911077 56.88115,17.6575711 C56.649525,17.8240346 56.3506083,17.9869411 55.9836917,18.1462907 C55.6153583,18.3056402 55.179025,18.4464939 54.6746917,18.569563 C54.16965,18.6926321 53.5930667,18.7545224 52.9449417,18.7545224 C52.0793583,18.7545224 51.3016083,18.6200711 50.6095667,18.3525915 C49.917525,18.0844004 49.3296083,17.7116362 48.8472333,17.2342988 C48.3634417,16.75625 47.9972333,16.1800305 47.7443583,15.507063 C47.4914833,14.8340955 47.3654,14.0928354 47.3654,13.2811484 C47.3654,12.5719004 47.4844,11.8875508 47.7224,11.228811 C47.9604,10.5700711 48.302525,9.99456301 48.7494833,9.50228659 C49.1957333,9.01001016 49.7439833,8.61590447 50.3928167,8.31925813 C51.04165,8.02261179 51.7769,7.87322154 52.599275,7.87322154 C53.4202333,7.87322154 54.1413167,8.0183435 54.7618167,8.30787602 C55.3809,8.59740854 55.9043583,8.99933943 56.3293583,9.51295732 C56.75365,10.0272866 57.074525,10.6426321 57.2919833,11.3589939 C57.508025,12.0753557 57.6156917,12.8614329 57.6156917,13.7158028 L57.6156917,14.2365346 L50.3928167,14.2365346 C50.4069833,14.7878557 50.6492333,15.26875 51.1174417,15.6813516 C51.58565,16.0939533 52.2309417,16.3002541 53.0526083,16.3002541 C53.8601083,16.3002541 54.5153167,16.1800305 55.021775,15.9417175 C55.5254,15.7026931 55.8923167,15.4963923 56.1239417,15.322815 Z M31.0595667,18.4066565 L31.7303583,3.92078252 L34.8222333,3.92078252 L38.5849,10.71875 L42.26115,3.92078252 L45.3756917,3.92078252 L46.045775,18.4066565 L42.7803583,18.4066565 L42.369525,8.93816057 L39.3853167,14.5844004 L37.6980667,14.5844004 L34.541025,9.00289634 L34.1734,18.4066565 L31.0595667,18.4066565 Z M80.5911917,7.0558435 C79.629275,7.0558435 78.8352333,6.25909553 78.8352333,5.29303862 C78.8352333,4.32698171 79.629275,3.53023374 80.5911917,3.53023374 C81.5764833,3.53023374 82.3464417,4.30279472 82.3464417,5.29303862 C82.3464417,6.25909553 81.5538167,7.0558435 80.5911917,7.0558435 Z" id="Combined-Shape"></path>
                        <path d="M11.8629542,7.11026423 C14.3123708,10.3669715 15.7665792,14.4239837 15.7665792,18.8238821 C15.7665792,19.8852642 15.6801625,20.9260163 15.5172458,21.9425813 L22.6090792,21.9425813 C23.2253292,21.9425813 23.7254125,21.4382114 23.7254125,20.8178862 L23.7254125,1.12682927 C23.7254125,0.392682927 23.0376208,-0.149390244 22.3328292,0.0369918699 C18.0984125,1.15955285 14.4327875,3.69420732 11.8629542,7.11026423" id="Fill-3" opacity="0.4"></path>
                        <path d="M8.20922917,21.9419411 C8.0463125,20.9267988 7.95989583,19.884624 7.95989583,18.8232419 C7.95989583,14.4240549 9.41339583,10.3670427 11.8628125,7.10962398 C9.2936875,3.69427846 5.6280625,1.1589126 1.39364583,0.0370630081 C0.688854167,-0.150030488 -0.000354166667,0.392754065 -0.000354166667,1.12618902 L-0.000354166667,20.8186687 C-0.000354166667,21.4389939 0.5004375,21.9419411 1.11739583,21.9419411 L8.20922917,21.9419411 Z" id="Fill-6" opacity="0.6"></path>
                        <path d="M11.8629542,7.11026423 C9.4135375,10.3669715 7.9600375,14.4239837 7.9600375,18.8238821 C7.9600375,19.8852642 8.04645417,20.9260163 8.20937083,21.9425813 L15.5172458,21.9425813 C15.6801625,20.9260163 15.7665792,19.8852642 15.7665792,18.8238821 C15.7665792,14.4239837 14.3123708,10.3669715 11.8629542,7.11026423" id="Fill-9" opacity="0.8"></path>
                    </g>
                </g>
                <rect id="Rectangle" opacity="0.499232701" x="112" y="2" width="1" height="26"></rect>
                <text id="ARS" font-family="HelveticaNeue-Bold, Helvetica Neue" font-size="20" font-weight="bold" letter-spacing="1.115928">
                    <tspan x="121" y="22">ARS</tspan>
                </text>
            </g>
        </g>
    </g>
</svg>