<?xml version="1.0" encoding="UTF-8"?>
<svg width="168px" height="30px" viewBox="0 0 168 30" version="1.1" xmlns="http://www.w3.org/2000/svg" xmlns:xlink="http://www.w3.org/1999/xlink">
    <!-- Generator: Sketch 61.2 (89653) - https://sketch.com -->
    <title>logo+系统名</title>
    <desc>Created with Sketch.</desc>
    <g id="Symbols" stroke="none" stroke-width="1" fill="none" fill-rule="evenodd">
        <g id="logo+系统名" fill="#FFFFFF">
            <g id="logo/logo2">
                <g id="Group">
                    <path d="M55.7512297,26.1058028 L55.7512297,27.1607825 L54.1328354,27.1607825 C54.7816159,27.7469614 55.4382215,28.4974695 55.7818191,29.0601728 L54.7190142,29.701128 C54.6492988,29.5609858 54.5468598,29.4044817 54.4373069,29.2401524 C52.6389329,29.3411687 50.7487907,29.4279573 49.412815,29.4898476 L49.2634248,28.3800915 C49.6226728,28.3729776 50.0217581,28.3573272 50.4592581,28.3409654 C50.6314126,27.9738923 50.7950305,27.5520427 50.9209451,27.1607825 L49.2399492,27.1607825 L49.2399492,26.1058028 L55.7512297,26.1058028 Z M42.2406606,22.3383232 L42.2406606,23.0568191 L42.9449289,23.0568191 L42.9441037,23.4152337 L43.0510829,23.1717732 C43.1198498,23.0067852 43.1841904,22.8384248 43.2415752,22.6662703 L44.1165752,22.9088516 L44.1165752,22.7053963 L46.3602744,22.7053963 L46.5238923,22.6662703 L47.3526524,23.1741972 C47.1022459,23.9325305 46.7899492,24.8160671 46.5167785,25.4883232 C47.0873069,26.1762297 47.180498,26.7937093 47.180498,27.2781606 C47.180498,27.9191159 47.0403557,28.3174898 46.7195224,28.5365955 C46.5630183,28.6539736 46.3673882,28.723689 46.1489939,28.7557012 C45.9775508,28.7791768 45.7427947,28.787002 45.5002134,28.7706402 C45.4923882,28.4818191 45.3906606,28.0279573 45.2341565,27.7234858 L45.2341565,29.6933028 L44.1165752,29.6933028 L44.1165752,23.3150508 C43.9451321,23.7297866 43.7580386,24.1281606 43.5382215,24.5037703 L43.9131199,24.5037703 L43.9131199,25.480498 L42.8894411,25.480498 C42.7642378,25.6448272 42.6319207,25.8013313 42.4917785,25.9578354 L43.6947256,25.9578354 L43.6947256,29.58375 L42.6240955,29.58375 L42.6240955,29.3184045 L41.6310061,29.3184045 L41.6310061,29.6933028 L40.6080386,29.6933028 L40.6080386,27.4965549 C40.52125,27.5520427 40.4351728,27.5989939 40.3498069,27.6459451 C40.2324289,27.4033638 39.9123069,26.9182012 39.7166768,26.6919817 C40.3811077,26.3867988 40.9744004,25.9727744 41.4908638,25.480498 L39.9350711,25.480498 L39.9350711,24.5037703 L41.1935061,24.5037703 L41.1935061,24.0264329 L40.2637297,24.0264329 L40.2637297,23.0568191 L41.1935061,23.0568191 L41.1935061,22.3383232 L42.2406606,22.3383232 Z M68.4664736,22.2600711 L69.7177947,22.3774492 L69.6708435,22.7687093 L72.2652541,22.7687093 L72.2652541,23.7141362 L69.5371037,23.7141362 L69.4830386,24.0107825 L71.9991972,24.0107825 L71.9991972,24.9177947 L69.2874085,24.9177947 C69.2639329,25.0273476 69.2326321,25.1290752 69.2091565,25.2308028 L72.7269411,25.2308028 L72.7269411,26.1997053 L71.4763313,26.1997053 L71.4763313,26.6450305 L72.6010264,26.6450305 L72.6010264,27.6302947 L71.4763313,27.6302947 L71.4763313,28.5052947 C71.4763313,29.0210467 71.3902541,29.3184045 71.0381199,29.4898476 C70.6945224,29.662002 70.2641362,29.6854776 69.7405589,29.6783638 C69.6936077,29.3575305 69.5143394,28.8801931 69.3656606,28.5757215 C69.6544817,28.591372 70.0535671,28.591372 70.1631199,28.591372 C70.2797866,28.591372 70.3110874,28.567185 70.3110874,28.4739939 L70.3110874,27.6302947 L68.2167785,27.6302947 C68.0752134,27.8565142 67.9194207,28.0749085 67.7558028,28.2790752 L68.4828354,27.8252134 C68.7794817,28.1382215 69.1622053,28.5757215 69.342185,28.8801931 L68.3654573,29.5140346 C68.2238923,29.224502 67.8959451,28.787002 67.6142378,28.4498069 C67.2635264,28.8574289 66.8566159,29.2088516 66.3871037,29.5062093 C66.2000102,29.2871037 65.6529573,28.826128 65.3548882,28.6148476 C65.8557012,28.3487907 66.2782622,28.0208435 66.6382215,27.6302947 L65.7383232,27.6302947 L65.7383232,26.6450305 L67.3417785,26.6450305 C67.4193191,26.5041768 67.4975711,26.355498 67.567998,26.1997053 L65.5825305,26.1997053 L65.5825305,25.2308028 L67.9350711,25.2308028 C67.966372,25.1290752 67.9905589,25.0273476 68.0211484,24.9177947 L66.3330386,24.9177947 L66.3330386,24.0107825 L68.2238923,24.0107825 C68.2480793,23.9090549 68.2630183,23.8151524 68.2793801,23.7141362 L65.9972663,23.7141362 L65.9972663,22.7687093 L68.4124085,22.7687093 C68.4351728,22.6036687 68.4515346,22.4322256 68.4664736,22.2600711 Z M35.2719614,22.3383232 C35.2648476,22.9686077 35.256311,23.63375 35.1958435,24.300315 L35.1958435,24.300315 L38.1964533,24.300315 L38.1964533,25.480498 L35.5394411,25.480498 C36.0473679,26.895437 36.9543801,28.0364939 38.3920833,28.591372 C38.110376,28.8410671 37.7283638,29.3411687 37.5476728,29.6705386 C36.1725711,29.0366972 35.3132215,27.9966565 34.7106809,26.6137297 C34.2653557,27.8173882 33.4365955,28.9043801 31.8971646,29.6705386 C31.717185,29.3575305 31.3735874,28.9506199 31.0371037,28.7009248 C32.748689,27.9269411 33.4686077,26.7545833 33.7801931,25.480498 L33.7801931,25.480498 L31.1936077,25.480498 L31.1936077,24.300315 L33.9687093,24.300315 C34.0213516,23.63375 34.0156606,22.9686077 34.0227744,22.3383232 L34.0227744,22.3383232 Z M61.2487907,22.3383232 C61.1442175,25.3332419 62.492998,27.6765346 64.5631199,28.6617988 C64.1953354,28.9356809 63.859563,29.3184045 63.6874085,29.6314126 C62.0227744,28.787002 61.1477744,27.332937 60.6782622,25.9649492 C60.232937,27.2781606 59.4205386,28.6539736 57.9116972,29.637815 C57.7075305,29.3411687 57.3411687,28.9897459 56.9420833,28.723689 C60.0529573,26.9182012 59.8815142,23.4559045 59.9355793,22.3383232 L59.9355793,22.3383232 Z M42.6240955,28.0364939 L41.6310061,28.0364939 L41.6310061,28.4192175 L42.6240955,28.4192175 L42.6240955,28.0364939 Z M53.8440142,27.1607825 L52.3195224,27.1607825 C52.1246037,27.5435061 51.9211484,27.9425915 51.7255183,28.3018394 C52.342998,28.2790752 52.9917785,28.2555996 53.6327337,28.2314126 C53.4299898,28.0051931 53.2187093,27.7860874 53.0159654,27.5911687 L53.8440142,27.1607825 Z M45.9697256,23.7689126 L45.2341565,23.7689126 L45.2341565,27.6765346 C45.3906606,27.692185 45.5080386,27.692185 45.6175915,27.692185 C45.7271443,27.692185 45.8366972,27.6765346 45.9142378,27.6302947 C46.0394411,27.5598679 46.0949289,27.4033638 46.0949289,27.1458435 C46.0949289,26.7545833 45.9533638,26.1911687 45.4219614,25.6291768 C45.6019411,25.1134248 45.8132215,24.3622053 45.9697256,23.7689126 Z M42.6240955,26.8477744 L41.6310061,26.8477744 L41.6310061,27.191372 L42.6240955,27.191372 L42.6240955,26.8477744 Z M70.3110874,26.1997053 L68.904685,26.1997053 C68.8420833,26.3476728 68.7873069,26.497063 68.7247053,26.6450305 L70.3110874,26.6450305 L70.3110874,26.1997053 Z M53.0714533,22.3383232 C53.9051931,23.4608841 55.0576321,24.2668801 56.2819207,24.6673882 C56.0016362,24.9569207 55.7512297,25.3631199 55.547063,25.7074289 C55.1330386,25.519624 54.7033638,25.2699289 54.2893394,24.9960467 L54.2893394,24.9960467 L54.2893394,25.637002 L50.6627134,25.637002 L50.6627134,25.057937 C50.263628,25.3318191 49.8268394,25.5900508 49.3808028,25.7935061 C49.2477744,25.519624 48.9433028,25.0814126 48.7085467,24.8395427 C50.0224695,24.2860874 51.2190142,23.2133232 51.793811,22.3383232 L51.793811,22.3383232 Z M52.475315,23.3776524 C52.1786687,23.7760264 51.7646443,24.1985874 51.2801931,24.5969614 L51.2801931,24.5969614 L53.7266362,24.5969614 C53.2187093,24.2064126 52.7733841,23.7838516 52.475315,23.3776524 Z M42.6319207,24.0264329 L42.2406606,24.0264329 L42.2406606,24.5037703 L42.3274492,24.5037703 C42.4284654,24.3472663 42.5309045,24.1907622 42.6319207,24.0264329 Z M63.3512805,5.49151423 L63.3512805,8.2210874 L65.979126,8.2210874 L65.979126,10.6753557 L63.3512805,10.6753557 L63.3512805,14.6932419 C63.3512805,15.1855183 63.4487398,15.5653963 63.6450813,15.832876 C63.84,16.1010671 64.1480285,16.2348069 64.5677439,16.2348069 C64.8864431,16.2348069 65.161748,16.1800305 65.3929472,16.0719004 C65.6241463,15.9630589 65.8411179,15.8364329 66.0445732,15.6927337 L66.0445732,15.6927337 L67.3044309,17.6027947 C66.319878,18.385315 65.2485366,18.7758638 64.0896951,18.7758638 C63.3655081,18.7758638 62.7579878,18.6705793 62.2657114,18.4614329 C61.773435,18.2508638 61.375061,17.9620427 61.0705894,17.592124 C60.7668293,17.223628 60.5498577,16.7775915 60.4196748,16.2568598 C60.2894919,15.7354167 60.2240447,15.1563516 60.2240447,14.5189533 L60.2240447,14.5189533 L60.2240447,10.6753557 L58.6120528,10.6753557 L58.6120528,8.2210874 L60.2240447,8.2210874 L60.2240447,5.49151423 L63.3512805,5.49151423 Z M97.119878,7.87322154 C97.9450813,7.87322154 98.6678455,8.0183435 99.2910163,8.30787602 C99.9134756,8.59740854 100.438476,8.99933943 100.865305,9.51295732 C101.292846,10.0272866 101.615102,10.6426321 101.832073,11.3589939 C102.049756,12.0753557 102.157886,12.8614329 102.157886,13.7158028 L102.157886,13.7158028 L102.157886,14.2365346 L94.9039228,14.2365346 C94.9188618,14.7878557 95.1607317,15.26875 95.6316667,15.6813516 C96.1018902,16.0939533 96.7499593,16.3002541 97.5751626,16.3002541 C98.3868496,16.3002541 99.044878,16.1800305 99.5513821,15.9417175 C100.058598,15.7026931 100.427805,15.4963923 100.659004,15.322815 L100.659004,15.322815 L101.941626,17.2990346 C101.824959,17.3723069 101.650671,17.4911077 101.419472,17.6575711 C101.187561,17.8240346 100.887358,17.9869411 100.518862,18.1462907 C100.148943,18.3056402 99.7114431,18.4464939 99.2042276,18.569563 C98.6970122,18.6926321 98.1179472,18.7545224 97.4677439,18.7545224 C96.598435,18.7545224 95.8159146,18.6200711 95.1208943,18.3525915 C94.425874,18.0844004 93.8361382,17.7116362 93.351687,17.2342988 C92.865813,16.75625 92.4973171,16.1800305 92.2433537,15.507063 C91.9901016,14.8340955 91.864187,14.0928354 91.864187,13.2811484 C91.864187,12.5719004 91.9844106,11.8875508 92.2220122,11.228811 C92.4603252,10.5700711 92.8046341,9.99456301 93.2535163,9.50228659 C93.7031098,9.01001016 94.2530081,8.61590447 94.9039228,8.31925813 C95.5555488,8.02261179 96.2946748,7.87322154 97.119878,7.87322154 Z M52.8256707,7.87322154 C53.6501626,7.87322154 54.3743496,8.0183435 54.9975203,8.30787602 C55.6192683,8.59740854 56.1449797,8.99933943 56.5718089,9.51295732 C56.9979268,10.0272866 57.3201829,10.6426321 57.5385772,11.3589939 C57.7555488,12.0753557 57.8636789,12.8614329 57.8636789,13.7158028 L57.8636789,13.7158028 L57.8636789,14.2365346 L50.6097154,14.2365346 C50.6239431,14.7878557 50.8672358,15.26875 51.3374593,15.6813516 C51.8076829,16.0939533 52.455752,16.3002541 53.2809553,16.3002541 C54.0919309,16.3002541 54.7499593,16.1800305 55.2585976,15.9417175 C55.7643902,15.7026931 56.1328862,15.4963923 56.3655081,15.322815 L56.3655081,15.322815 L57.6459959,17.2990346 C57.530752,17.3723069 57.3571748,17.4911077 57.1259756,17.6575711 C56.8933537,17.8240346 56.5931504,17.9869411 56.2246545,18.1462907 C55.8547358,18.3056402 55.4165244,18.4464939 54.9100203,18.569563 C54.4028049,18.6926321 53.8237398,18.7545224 53.1728252,18.7545224 C52.3035163,18.7545224 51.5224187,18.6200711 50.8273984,18.3525915 C50.132378,18.0844004 49.5419309,17.7116362 49.0574797,17.2342988 C48.5716057,16.75625 48.2038211,16.1800305 47.9498577,15.507063 C47.6958943,14.8340955 47.5692683,14.0928354 47.5692683,13.2811484 C47.5692683,12.5719004 47.6887805,11.8875508 47.9278049,11.228811 C48.1668293,10.5700711 48.5104268,9.99456301 48.9593089,9.50228659 C49.4074797,9.01001016 49.9580894,8.61590447 50.6097154,8.31925813 C51.2613415,8.02261179 51.9997561,7.87322154 52.8256707,7.87322154 Z M89.9050407,3.53023374 C90.454939,3.53023374 91.0126626,3.60919715 91.5767886,3.76854675 C92.1423374,3.92860772 92.6559553,4.20320122 93.119065,4.59375 L93.119065,4.59375 L91.7944715,6.57068089 C91.5767886,6.41204268 91.3384756,6.2882622 91.0773984,6.20147358 C90.8170325,6.11468496 90.5481301,6.07129065 90.2735366,6.07129065 C89.8395935,6.07129065 89.492439,6.2085874 89.2313618,6.48389228 C88.9709959,6.75919715 88.840813,7.14974593 88.840813,7.65625 L88.840813,7.65625 L88.840813,8.2210874 L91.251687,8.2210874 L91.251687,10.6753557 L88.840813,10.6753557 L88.840813,18.4066565 L85.7349187,18.4066565 L85.7349187,10.6753557 L84.0845122,10.6753557 L84.0845122,8.2210874 L85.7349187,8.2210874 L85.7349187,7.70035569 C85.7349187,6.9761687 85.8544309,6.35370935 86.0934553,5.83155488 C86.3324797,5.31082317 86.6469106,4.88043699 87.0381707,4.54039634 C87.4294309,4.19964431 87.8740447,3.94639228 88.373435,3.77921748 C88.8735366,3.61346545 89.3835976,3.53023374 89.9050407,3.53023374 Z M82.501687,8.2210874 L82.501687,18.4066565 L79.3737398,18.4066565 L79.3737398,8.2210874 L82.501687,8.2210874 Z M71.754126,3.92078252 L71.754126,15.7247459 L78.0036179,15.7247459 L78.0036179,18.4066565 L68.4746545,18.4066565 L68.4746545,3.92078252 L71.754126,3.92078252 Z M34.9721138,3.92078252 L38.7509756,10.71875 L42.4430488,3.92078252 L45.5709959,3.92078252 L46.2439634,18.4066565 L42.9644919,18.4066565 L42.5518902,8.93816057 L39.5548374,14.5844004 L37.8603252,14.5844004 L34.6896951,9.00289634 L34.3204878,18.4066565 L31.193252,18.4066565 L31.8669309,3.92078252 L34.9721138,3.92078252 Z M97.0971138,10.3061484 C96.7357317,10.3061484 96.4170325,10.3673272 96.1417276,10.4903963 C95.8671341,10.6141768 95.6387805,10.7692581 95.457378,10.957063 C95.276687,11.1462907 95.1393902,11.3525915 95.0447764,11.5766768 C94.950874,11.8007622 94.9039228,12.022002 94.9039228,12.2389736 L94.9039228,12.2389736 L99.2042276,12.2389736 C99.2042276,12.022002 99.1608333,11.8007622 99.0740447,11.5766768 C98.9872561,11.3525915 98.8570732,11.1462907 98.6827846,10.957063 C98.5092073,10.7692581 98.2922358,10.6141768 98.0318699,10.4903963 C97.7707927,10.3673272 97.4592073,10.3061484 97.0971138,10.3061484 Z M52.8029065,10.3061484 C52.440813,10.3061484 52.1228252,10.3673272 51.8489431,10.4903963 C51.5729268,10.6141768 51.3445732,10.7692581 51.1638821,10.957063 C50.9824797,11.1462907 50.8451829,11.3525915 50.7512805,11.5766768 C50.6566667,11.8007622 50.6097154,12.022002 50.6097154,12.2389736 L50.6097154,12.2389736 L54.9100203,12.2389736 C54.9100203,12.022002 54.866626,11.8007622 54.779126,11.5766768 C54.6930488,11.3525915 54.5621545,11.1462907 54.3892886,10.957063 C54.215,10.7692581 53.9980285,10.6141768 53.7369512,10.4903963 C53.4765854,10.3673272 53.165,10.3061484 52.8029065,10.3061484 Z M80.9380691,3.53023374 C81.9276016,3.53023374 82.700874,4.30279472 82.700874,5.29303862 C82.700874,6.25909553 81.9048374,7.0558435 80.9380691,7.0558435 C79.9720122,7.0558435 79.1745528,6.25909553 79.1745528,5.29303862 C79.1745528,4.32698171 79.9720122,3.53023374 80.9380691,3.53023374 Z" id="Combined-Shape"></path>
                    <path d="M11.9140142,7.11026423 C14.3739736,10.3669715 15.8344411,14.4239837 15.8344411,18.8238821 C15.8344411,19.8852642 15.7476524,20.9260163 15.5840346,21.9425813 L22.7063923,21.9425813 C23.3252947,21.9425813 23.8275305,21.4382114 23.8275305,20.8178862 L23.8275305,1.12682927 C23.8275305,0.392682927 23.1367785,-0.149390244 22.4289533,0.0369918699 C18.176311,1.15955285 14.4949085,3.69420732 11.9140142,7.11026423" id="Fill-3" opacity="0.4"></path>
                    <path d="M8.24456301,21.9419411 C8.08094512,20.9267988 7.9941565,19.884624 7.9941565,18.8232419 C7.9941565,14.4240549 9.4539126,10.3670427 11.913872,7.10962398 C9.33368902,3.69427846 5.65228659,1.1589126 1.39964431,0.0370630081 C0.691819106,-0.150030488 -0.000355691057,0.392754065 -0.000355691057,1.12618902 L-0.000355691057,20.8186687 C-0.000355691057,21.4389939 0.502591463,21.9419411 1.12220528,21.9419411 L8.24456301,21.9419411 Z" id="Fill-6" opacity="0.6"></path>
                    <path d="M11.9140142,7.11026423 C9.45405488,10.3669715 7.99429878,14.4239837 7.99429878,18.8238821 C7.99429878,19.8852642 8.0810874,20.9260163 8.24470528,21.9425813 L15.5840346,21.9425813 C15.7476524,20.9260163 15.8344411,19.8852642 15.8344411,18.8238821 C15.8344411,14.4239837 14.3739736,10.3669715 11.9140142,7.11026423" id="Fill-9" opacity="0.8"></path>
                </g>
            </g>
            <rect id="Rectangle" opacity="0.499232701" x="112" y="2" width="1" height="26"></rect>
            <text id="i招募" font-family="PingFangSC-Semibold, PingFang SC" font-size="20" font-weight="500" letter-spacing="1.115928">
                <tspan x="121" y="22">i招募</tspan>
            </text>
        </g>
    </g>
</svg>