<?xml version="1.0" encoding="UTF-8"?>
<svg width="24px" height="24px" viewBox="0 0 24 24" version="1.1" xmlns="http://www.w3.org/2000/svg" xmlns:xlink="http://www.w3.org/1999/xlink">
    <!-- Generator: Sketch 58 (84663) - https://sketch.com -->
    <title>icon/二级导航/2.1</title>
    <desc>Created with Sketch.</desc>
    <g id="icon/二级导航/2.1" stroke="none" stroke-width="1" fill="none" fill-rule="evenodd">
        <g id="p_group-insurance_≤24p_HVR" transform="translate(0.000000, 6.000000)" fill="#FFFFFF" fill-rule="nonzero">
            <circle id="椭圆形" cx="11.7" cy="3" r="3"></circle>
            <path d="M7.862,13 L15.539,13 C15.3315399,10.9597968 14.9037116,8.94806508 14.263,7 L9.138,7 L9.138,7.009 C8.49801263,8.95418178 8.07019367,10.9628521 7.862,13 L7.862,13 Z" id="路径"></path>
            <circle id="椭圆形" cx="3.2" cy="4.5" r="2.375"></circle>
            <path d="M4.4408921e-14,13 L6.4,13 C6.22721454,11.2998447 5.87080304,9.62340299 5.337,8 L1.065,8 L1.065,8.007 C0.531070884,9.62808164 0.173995481,11.302145 4.4408921e-14,13 L4.4408921e-14,13 Z" id="路径"></path>
            <circle id="椭圆形" cx="20.2" cy="4.5" r="2.375"></circle>
            <path d="M17,13 L23.4,13 C23.2272145,11.2998447 22.870803,9.62340299 22.337,8 L18.065,8 L18.065,8.007 C17.5310709,9.62808164 17.1739955,11.302145 17,13 L17,13 Z" id="路径"></path>
        </g>
    </g>
</svg>