<?xml version="1.0" encoding="UTF-8"?>
<svg width="24px" height="24px" viewBox="0 0 24 24" version="1.1" xmlns="http://www.w3.org/2000/svg" xmlns:xlink="http://www.w3.org/1999/xlink">
    <!-- Generator: Sketch 58 (84663) - https://sketch.com -->
    <title>icon/二级导航/2.10</title>
    <desc>Created with Sketch.</desc>
    <g id="icon/二级导航/2.10" stroke="none" stroke-width="1" fill="none" fill-rule="evenodd">
        <g id="au_newsroom_≤24px_HVR" transform="translate(2.000000, 4.000000)" fill-rule="nonzero">
            <path d="M1,0 L1,13.572 C0.973732332,14.2211889 1.21913836,14.8519678 1.67722958,15.3127157 C2.13532081,15.7734637 2.76467005,16.0225132 3.414,16 C4.06178449,16.0171358 4.6879617,15.7663634 5.14484797,15.3068274 C5.60173424,14.8472915 5.84888144,14.2196746 5.828,13.572 L5.828,12 L13.974,12 L13.974,0 L1,0 Z" id="路径" fill="#FFFFFF"></path>
            <polygon id="路径" fill="#0090DA" points="4 6.571 11 6.571 11 8 4 8"></polygon>
            <polygon id="路径" fill="#0090DA" points="4 3 11 3 11 4.429 4 4.429"></polygon>
            <path d="M19,14 L9,14 L9,14.538 C8.9350015,15.443739 8.4051244,16.2510446 7.6,16.671 L7.548,16.699 C7.22337584,16.8968854 6.85017946,17.0007434 6.47,16.9990216 L16.64,16.9990216 C17.0539212,16.9973252 17.4580146,16.872721 17.801,16.641 C18.5424342,16.2007045 18.9980889,15.4033087 19.001,14.541 L19.001,14" id="路径" fill="#FFFFFF"></path>
        </g>
    </g>
</svg>