<?xml version="1.0" encoding="UTF-8"?>
<svg width="24px" height="24px" viewBox="0 0 24 24" version="1.1" xmlns="http://www.w3.org/2000/svg" xmlns:xlink="http://www.w3.org/1999/xlink">
    <!-- Generator: Sketch 58 (84663) - https://sketch.com -->
    <title>icon/二级导航/2.11</title>
    <desc>Created with Sketch.</desc>
    <g id="icon/二级导航/2.11" stroke="none" stroke-width="1" fill="none" fill-rule="evenodd">
        <g id="utility-2_gear_16p_HVR" transform="translate(4.000000, 4.000000)" fill="#FFFFFF" fill-rule="nonzero">
            <path d="M14.3,9.9 C13.6,9.5 13.1,8.8 13.1,8 C13.2,7.2 13.6,6.4 14.3,6.1 C14.7,5.8 15.2,5.5 15.6,5.3 L14.1,2.8 C13.6,3 13.2,3.3 12.7,3.5 C12,3.9 11.1,4 10.4,3.6 C9.7,3.1 9.3,2.4 9.3,1.6 L9.3,0.1 L6.5,0.1 C6.5,0.6 6.5,1.1 6.4,1.6 C6.4,2.4 6,3.2 5.3,3.6 C4.6,3.9 3.8,3.8 3.1,3.4 C2.6,3.2 2.2,3 1.8,2.7 L0.4,5.3 C0.8,5.5 1.2,5.8 1.6,6 C2.3,6.4 2.7,7.2 2.8,8 C2.7,8.8 2.3,9.5 1.6,9.9 C1.2,10.2 0.8,10.4 0.4,10.7 L1.9,13.2 C2.3,13 2.7,12.7 3.2,12.5 C3.9,12.1 4.8,12 5.5,12.4 C6.2,12.9 6.6,13.6 6.6,14.4 C6.6,14.9 6.6,15.4 6.7,15.9 L9.6,15.9 C9.6,15.4 9.6,14.9 9.7,14.4 C9.7,13.6 10.1,12.8 10.8,12.4 C11.5,12 12.4,12.1 13.1,12.5 C13.6,12.7 14,13 14.5,13.2 L16,10.7 C15.2,10.5 14.8,10.2 14.3,9.9 Z M8,10 C6.9,10 6,9.1 6,8 C6,6.9 6.9,6 8,6 C9.1,6 10,6.9 10,8 C10,9.1 9.1,10 8,10 Z" id="形状"></path>
        </g>
    </g>
</svg>