<?xml version="1.0" encoding="UTF-8"?>
<svg width="24px" height="24px" viewBox="0 0 24 24" version="1.1" xmlns="http://www.w3.org/2000/svg" xmlns:xlink="http://www.w3.org/1999/xlink">
    <!-- Generator: Sketch 58 (84663) - https://sketch.com -->
    <title>icon/二级导航/2.2</title>
    <desc>Created with Sketch.</desc>
    <g id="icon/二级导航/2.2" stroke="none" stroke-width="1" fill="none" fill-rule="evenodd">
        <g id="au_metlife-blog_≤24p_HVR" transform="translate(5.000000, 3.000000)" fill-rule="nonzero">
            <path d="M-8.8817842e-16,3 L-8.8817842e-16,16.845 C0.00105903724,17.1523865 0.124184447,17.4467623 0.342289653,17.6633672 C0.560394859,17.8799721 0.855613533,18.0010627 1.163,18 L14,18 L14,4 L1,4 C0.480769617,3.92735223 0.0726477735,3.51923038 -8.8817842e-16,3 Z" id="路径" fill="#FFFFFF"></path>
            <path d="M1.941,2.324 L12.96,2.324 L12.96,0 L1.941,0.015 C1.52043486,0.00262106394 1.12640896,0.219919989 0.91247149,0.582216874 C0.69853402,0.94451376 0.69853402,1.39448624 0.91247149,1.75678313 C1.12640896,2.11908001 1.52043486,2.33637894 1.941,2.324 Z" id="路径" fill="#FFFFFF"></path>
            <path d="M9.96,13.022 L8.96,13.022 C9.02489677,11.9405871 8.62513509,10.8828887 7.86118874,10.1147407 C7.09724239,9.34659263 6.04175258,8.94103562 4.96,9 L4.96,8 C6.31179348,7.92416638 7.63155781,8.42965264 8.58681915,9.38911713 C9.5420805,10.3485816 10.0417677,11.6705525 9.96,13.022 Z" id="路径" fill="#0090DA"></path>
            <path d="M4.96,10.523 L4.96,13 L7.437,13 C7.47128183,12.333139 7.22134049,11.6829888 6.74917586,11.2108241 C6.27701124,10.7386595 5.62686102,10.4887182 4.96,10.523 L4.96,10.523 Z" id="路径" fill="#0090DA"></path>
        </g>
    </g>
</svg>