<?xml version="1.0" encoding="UTF-8"?>
<svg width="24px" height="24px" viewBox="0 0 24 24" version="1.1" xmlns="http://www.w3.org/2000/svg" xmlns:xlink="http://www.w3.org/1999/xlink">
    <!-- Generator: Sketch 58 (84663) - https://sketch.com -->
    <title>icon/二级导航/2.6</title>
    <desc>Created with Sketch.</desc>
    <g id="icon/二级导航/2.6" stroke="none" stroke-width="1" fill="none" fill-rule="evenodd">
        <g id="p_member-protection_≤24p_HVR" transform="translate(4.000000, 1.000000)" fill-rule="nonzero">
            <path d="M8,0.875 L8,21.125 C16,17.665 16,10.325 16,10.325 L16,4.925 L8,0.875 Z" id="路径" fill="#FFFFFF"></path>
            <path d="M0,4.925 L0,10.325 C0,10.325 0,17.665 8,21.125 L8,0.875 L0,4.925 Z" id="路径" fill="#FFFFFF"></path>
            <polygon id="路径" fill="#0090DA" points="4 7 12 7 12 13 4 13"></polygon>
            <polygon id="路径" fill="#FFFFFF" points="8 8.5 11 8.5 11 9.5 8 9.5"></polygon>
            <polygon id="路径" fill="#FFFFFF" points="5 11 11 11 11 12 5 12"></polygon>
            <polygon id="路径" fill="#FFFFFF" transform="translate(6.000000, 9.000000) rotate(45.000000) translate(-6.000000, -9.000000) " points="5.293 8.293 6.707 8.293 6.707 9.707 5.293 9.707"></polygon>
        </g>
    </g>
</svg>