<?xml version="1.0" encoding="UTF-8"?>
<svg width="24px" height="24px" viewBox="0 0 24 24" version="1.1" xmlns="http://www.w3.org/2000/svg" xmlns:xlink="http://www.w3.org/1999/xlink">
    <!-- Generator: Sketch 58 (84663) - https://sketch.com -->
    <title>icon/二级导航/2.7</title>
    <desc>Created with Sketch.</desc>
    <g id="icon/二级导航/2.7" stroke="none" stroke-width="1" fill="none" fill-rule="evenodd">
        <g id="d_claims-form_≤24p_HVR" transform="translate(2.000000, 4.000000)" fill-rule="nonzero">
            <path d="M1,0 L1,13.572 C0.974557981,14.2218341 1.22092817,14.8529022 1.67992764,15.3136094 C2.13892711,15.7743166 2.76907591,16.0230286 3.419,16 C4.06738471,16.0176547 4.69436659,15.7672182 5.15216133,15.3077202 C5.60995607,14.8482223 5.85806247,14.2203147 5.838,13.572 L5.838,12 L14,12 L14,0 L1,0 Z" id="路径" fill="#FFFFFF"></path>
            <path d="M19,14 L9,14 L9,14.538 C8.9350015,15.443739 8.4051244,16.2510446 7.6,16.671 L7.548,16.699 C7.22337584,16.8968854 6.85017946,17.0007434 6.47,16.9990216 L16.64,16.9990216 C17.0539212,16.9973252 17.4580146,16.872721 17.801,16.641 C18.5424342,16.2007045 18.9980889,15.4033087 19.001,14.541 L19.001,14" id="路径" fill="#FFFFFF"></path>
            <polygon id="路径" fill="#0090DA" points="8.187 6 8.187 3 6.787 3 6.787 6 3.987 6 7.487 9.474 10.987 6 8.187 6"></polygon>
        </g>
    </g>
</svg>