<?xml version="1.0" encoding="UTF-8"?>
<svg width="24px" height="24px" viewBox="0 0 24 24" version="1.1" xmlns="http://www.w3.org/2000/svg" xmlns:xlink="http://www.w3.org/1999/xlink">
    <!-- Generator: Sketch 58 (84663) - https://sketch.com -->
    <title>icon/二级导航/2.8</title>
    <desc>Created with Sketch.</desc>
    <g id="icon/二级导航/2.8" stroke="none" stroke-width="1" fill="none" fill-rule="evenodd">
        <g id="misc_hall-of-fame_≤24p_HVR" transform="translate(1.000000, 4.000000)" fill-rule="nonzero">
            <circle id="椭圆形" fill="#FFFFFF" cx="5.5" cy="3.5" r="3.5"></circle>
            <path d="M0,16 L11,16 C10.7339441,13.2833335 10.1839408,10.6020253 9.359,8 L1.641,8 L1.641,8.012 C0.816977156,10.6101662 0.266984659,13.2873997 0,16 L0,16 Z" id="路径" fill="#FFFFFF"></path>
            <path d="M12,11 C12,8.23857625 14.2385763,6 17,6 C19.7614237,6 22,8.23857625 22,11 C22,13.7614237 19.7614237,16 17,16 L12,16 L12,11 Z" id="路径" fill="#FFFFFF"></path>
            <polygon id="路径" fill="#0090DA" points="17 8.404 17.844 10.113 19.73 10.387 18.365 11.718 18.687 13.596 17 12.709 15.313 13.596 15.635 11.718 14.27 10.387 16.156 10.113"></polygon>
        </g>
    </g>
</svg>