<?xml version="1.0" encoding="UTF-8"?>
<svg width="24px" height="24px" viewBox="0 0 24 24" version="1.1" xmlns="http://www.w3.org/2000/svg" xmlns:xlink="http://www.w3.org/1999/xlink">
    <!-- Generator: Sketch 58 (84663) - https://sketch.com -->
    <title>icon/二级导航/2.9</title>
    <desc>Created with Sketch.</desc>
    <g id="icon/二级导航/2.9" stroke="none" stroke-width="1" fill="none" fill-rule="evenodd">
        <g id="utility-2_chat_≤24p_HVR" transform="translate(2.000000, 5.000000)" fill="#FFFFFF" fill-rule="nonzero">
            <path d="M17.72,12.727 C18.8716462,11.1545147 19.1077395,9.09092245 18.3410164,7.29895857 C17.5742932,5.50699469 15.9186356,4.25282127 13.986,4 C14.9715885,5.63336162 15.0270228,7.66430743 14.132,9.349 C13.118907,11.2346265 11.1210745,12.379404 8.982,12.3 L8.514,12.3 C9.50845997,13.9741989 11.3117217,15.000291 13.259,15 L19.993,15 L17.72,12.727 Z" id="路径"></path>
            <path d="M6.591,0.18098684 C4.55380489,0.176514669 2.68747525,1.31890325 1.76476439,3.13516003 C0.842053527,4.95141682 1.02002896,7.13237137 2.225,8.775 L0,11 L6.591,11 C9.57858432,11 12.0004999,8.57808432 12.0004999,5.5905 C12.0004999,2.60291568 9.57858432,0.18098684 6.591,0.18098684 L6.591,0.18098684 Z" id="路径"></path>
        </g>
    </g>
</svg>