<?xml version="1.0" encoding="UTF-8"?>
<svg width="100px" height="100px" viewBox="0 0 100 100" version="1.1" xmlns="http://www.w3.org/2000/svg" xmlns:xlink="http://www.w3.org/1999/xlink">
    <!-- Generator: Sketch 52.4 (67378) - http://www.bohemiancoding.com/sketch -->
    <title>icon/头像默认2</title>
    <desc>Created with Sketch.</desc>
    <defs>
        <polygon id="path-1" points="0.000132450331 0.27615894 99.3377483 0.27615894 99.3377483 99.6169205 0.000132450331 99.6169205"></polygon>
        <path d="M49.497351,0.27615894 C22.1456954,0.368211921 0,22.5748344 0,49.9480132 C0,77.3784768 22.2387417,99.6168874 49.6688742,99.6168874 C77.0456954,99.6168874 99.2456954,77.4715232 99.3377483,50.1195364 L99.3377483,49.7764901 C99.2456954,22.4817881 77.1387417,0.367880795 49.8403974,0.27615894 L49.497351,0.27615894 Z" id="path-3"></path>
    </defs>
    <g id="icon/头像默认2" stroke="none" stroke-width="1" fill="none" fill-rule="evenodd">
        <g id="Group-22">
            <g id="Group-3" transform="translate(0.000000, 0.054967)">
                <mask id="mask-2" fill="white">
                    <use xlink:href="#path-1"></use>
                </mask>
                <g id="Clip-2"></g>
                <path d="M99.3378808,49.9480464 C99.3378808,77.3785099 77.1027815,99.6169205 49.6690066,99.6169205 C22.238543,99.6169205 0.000132450331,77.3785099 0.000132450331,49.9480464 C0.000132450331,22.5179139 22.238543,0.275860927 49.6690066,0.275860927 C77.1027815,0.275860927 99.3378808,22.5179139 99.3378808,49.9480464" id="Fill-1" fill="#F2F2F2" mask="url(#mask-2)"></path>
            </g>
            <g id="Group-21" transform="translate(0.000000, 0.054967)">
                <mask id="mask-4" fill="white">
                    <use xlink:href="#path-3"></use>
                </mask>
                <g id="Clip-5"></g>
                <polygon id="Fill-4" fill="#F6C1A9" mask="url(#mask-4)" points="38.007947 80.2536424 60.7566225 80.2536424 60.7566225 59.3721854 38.007947 59.3721854"></polygon>
                <path d="M30.5995033,43.6600331 C30.5995033,43.6600331 29.1571192,42.3408278 27.9614238,42.8765894 C26.7663907,43.4126821 26.2716887,45.8024172 26.7663907,47.5332119 C27.2607616,49.2643377 29.4862583,53.7153311 30.5995033,54.2918212 C31.7114238,54.8686424 33.5243377,54.6630132 33.5243377,54.6630132 L30.5995033,43.6600331 Z" id="Fill-6" fill="#F6C1A9" mask="url(#mask-4)"></path>
                <path d="M68.1648344,43.6600331 C68.1648344,43.6600331 69.6075497,42.3408278 70.8029139,42.8765894 C71.9982781,43.4126821 72.492649,45.8024172 71.9982781,47.5332119 C71.5035762,49.2643377 69.2780795,53.7153311 68.1648344,54.2918212 C67.0529139,54.8686424 65.24,54.6630132 65.24,54.6630132 L68.1648344,43.6600331 Z" id="Fill-7" fill="#F6C1A9" mask="url(#mask-4)"></path>
                <path d="M68.9971854,31.5854305 C67.9263245,20.3761589 56.5518212,16.5854305 49.3822848,16.5854305 C42.2124172,16.5854305 30.838245,20.3761589 29.767053,31.5854305 C28.6961921,42.794702 34.0938742,60.2672185 35.3710265,61.792053 C36.6485099,63.3165563 43.9326159,66.9943709 45.1077815,67.2417219 C46.2809603,67.4887417 48.4028146,67.581457 49.3822848,67.581457 C50.361755,67.581457 52.4832781,67.4887417 53.6567881,67.2417219 C54.8319536,66.9943709 62.1160596,63.3165563 63.3932119,61.792053 C64.6706954,60.2672185 70.0683775,42.794702 68.9971854,31.5854305" id="Fill-8" fill="#F8E1CC" mask="url(#mask-4)"></path>
                <path d="M49.3821854,54.7454967 C49.3821854,54.7454967 48.3315232,54.6633775 47.6510596,54.3123841 C47.6510596,54.3123841 47.9808609,55.630596 49.3821854,55.7544371 C50.7835099,55.630596 51.1133113,54.3123841 51.1133113,54.3123841 C50.4328477,54.6633775 49.3821854,54.7454967 49.3821854,54.7454967" id="Fill-9" fill="#D89E84" mask="url(#mask-4)"></path>
                <path d="M82.0999338,85.8300662 L60.7565563,71.703245 C58.2704636,75.624106 55.8121854,79.8072185 49.382053,79.8072185 C42.9813907,79.8072185 40.5098675,76.0582119 38.0078808,72.1661589 L17.5645033,85.9843709 L8.40092715,110.933709 C8.40092715,110.933709 29.7489404,117.511523 49.442649,118.211854 C69.137351,117.511523 90.4853642,110.933709 90.4853642,110.933709 L82.0999338,85.8300662 Z" id="Fill-10" fill="#333333" mask="url(#mask-4)"></path>
                <path d="M49.3682781,82.4627152 C57.0944371,82.4627152 60.1417881,77.5365563 63.1292053,72.8153642 L60.7566887,71.3945033 C58.270596,75.3153642 55.8123179,79.4984768 49.3821854,79.4984768 C42.9815232,79.4984768 40.51,75.7494702 38.0076821,71.8574172 L35.5490728,73.2868874 C38.5752318,77.9878808 41.6275497,82.4627152 49.3682781,82.4627152" id="Fill-11" fill="#474747" mask="url(#mask-4)"></path>
                <path d="M38.1180795,71.703245 C38.1180795,71.703245 39.4071523,89.5770861 39.3101325,101.341325 C39.2131126,113.105563 39.3101325,117.400265 39.3101325,117.400265 C39.3101325,117.400265 31.3902649,116.914172 17.5978808,113.414503 L15.745894,85.1012583 C15.745894,85.1012583 33.3180795,74.3539073 38.1180795,71.703245" id="Fill-12" fill="#808080" mask="url(#mask-4)"></path>
                <path d="M60.7565232,71.703245 C60.7565232,71.703245 59.4674503,89.5770861 59.5648013,101.341325 C59.6618212,113.105563 59.5648013,117.400265 59.5648013,117.400265 C59.5648013,117.400265 67.4846689,116.914172 81.277053,113.414503 L83.1287086,85.1012583 C83.1287086,85.1012583 65.5565232,74.3539073 60.7565232,71.703245" id="Fill-13" fill="#808080" mask="url(#mask-4)"></path>
                <path d="M90.4854305,110.933543 L83.1288079,85.1010927 C80.0807947,94.8130132 78.3198675,110.553742 77.9423841,114.176589 C85.4135762,112.49447 90.4854305,110.933543 90.4854305,110.933543" id="Fill-14" fill="#808080" mask="url(#mask-4)"></path>
                <path d="M8.40082781,110.933543 L15.7561258,85.1010927 C18.8054636,94.8130132 20.5663907,110.553742 20.9438742,114.176589 C13.4726821,112.49447 8.40082781,110.933543 8.40082781,110.933543" id="Fill-15" fill="#808080" mask="url(#mask-4)"></path>
                <path d="M59.7499007,90.5604305 L68.7710927,85.6240066 L65.2399669,73.7875828 L60.7565232,70.0819536 C60.7565232,70.0819536 59.9399669,80.9839404 59.7499007,90.5604305" id="Fill-16" fill="#CCCCCC" mask="url(#mask-4)"></path>
                <path d="M39.124702,90.5604305 L30.1038411,85.6240066 L33.6349669,73.7875828 L38.1180795,70.0819536 C38.1180795,70.0819536 38.9349669,80.9839404 39.124702,90.5604305" id="Fill-17" fill="#CCCCCC" mask="url(#mask-4)"></path>
                <path d="M30.5862583,44.8582781 C30.5862583,44.8582781 34.6243377,39.2506623 36.1081126,28.7834437 L28.319702,28.7834437 C28.319702,28.7834437 26.8230132,37.2870861 29.0339404,42.8076159 L30.5862583,44.8582781 Z" id="Fill-18" fill="#1A1A1A" mask="url(#mask-4)"></path>
                <path d="M68.1780795,44.8582781 C68.1780795,44.8582781 64.14,39.2506623 62.6562252,28.7834437 L70.4446358,28.7834437 C70.4446358,28.7834437 71.9413245,37.2870861 69.7303974,42.8076159 L68.1780795,44.8582781 Z" id="Fill-19" fill="#1A1A1A" mask="url(#mask-4)"></path>
                <path d="M34.1872517,29.219702 C34.1872517,29.219702 39.5915563,35.7557947 46.1273179,38.0716887 C46.1273179,38.0716887 46.280298,35.138245 45.2004967,32.2048013 C45.2004967,32.2048013 49.7816225,36.2190397 56.317053,37.6084437 C56.317053,37.6084437 56.8316225,35.138245 56.317053,32.6680464 C56.317053,32.6680464 61.9263245,37.2481788 67.793543,39.2551325 C67.793543,39.2551325 70.740894,37.9657285 70.9395695,35.0852649 C71.1389073,32.2044702 72.6048013,23.9961921 63.9587748,16.585596 C56.9051325,10.5399007 39.1985099,9.79221854 32.3859272,19.0554636 C25.8140728,23.4663907 24.6660596,32.8736755 29.0339404,42.8074503 L34.1872517,29.219702 Z" id="Fill-20" fill="#1A1A1A" mask="url(#mask-4)"></path>
            </g>
        </g>
    </g>
</svg>